<svg id="icons" enable-background="new 0 0 64 64" height="64" viewBox="0 0 64 64" width="64" xmlns="http://www.w3.org/2000/svg"><g><g><path d="m36 24v3c0-2.21-1.79-4-4-4s-4 1.79-4 4v-3-4-2c0 1.1.9 2 2 2h4c1.1 0 2-.9 2-2v2z" fill="#da4453"/></g><g><path d="m36 18c0 1.1-.9 2-2 2h-4c-1.1 0-2-.9-2-2 0-.55.22-1.05.59-1.41.36-.37.86-.59 1.41-.59h4c1.1 0 2 .9 2 2z" fill="#656d78"/></g><g><path d="m32 23c2.21 0 4 1.79 4 4h-8c0-2.21 1.79-4 4-4z" fill="#ed5565"/></g><g><path d="m44 20v4h-2-6v-4z" fill="#e6e9ed"/></g><g><path d="m36 24h6v3h-6z" fill="#656d78"/></g><g><path d="m28 20v4h-6-2v-4z" fill="#e6e9ed"/></g><g><path d="m22 24h6v3h-6z" fill="#656d78"/></g><g><path d="m14 35h3v6h-3z" fill="#656d78"/></g><g><path d="m14 30h3v5h-3z" fill="#656d78"/></g><g><path d="m20 32h4v3h-4z" fill="#656d78"/></g><g><path d="m17 35v-5-3h5 6l-.73 8h-3.27v-3h-4v3z" fill="#d3374e"/></g><g><path d="m20 35h4 3.27l-.27 3v3h-10v-6z" fill="#d3374e"/></g><g><path d="m27 38h10v3h-10z" fill="#ed5565"/></g><g><path d="m36.73 35 .27 3h-10l.27-3 .73-8h8z" fill="#da4453"/></g><g><path d="m47 30v5h-3v-3h-4v3h-3.27l-.73-8h6 5z" fill="#d3374e"/></g><g><path d="m40 32h4v3h-4z" fill="#656d78"/></g><g><path d="m47 30h3v5h-3z" fill="#656d78"/></g><g><path d="m47 35h3v6h-3z" fill="#656d78"/></g><g><path d="m36.73 35h3.27 4 3v6h-10v-3z" fill="#d3374e"/></g><g><path d="m54 45h3v-4h-3v-6-3c0-1.1.9-2 2-2h5c1.1 0 2 .9 2 2v14c0 1.1-.9 2-2 2h-5c-1.1 0-2-.9-2-2z" fill="#656d78"/></g><g><path d="m57 41v4h-3-44-3v-4h3 4 3 10 10 10 3 4z" fill="#e6e9ed"/></g><g><path d="m7 45h3v1c0 1.1-.9 2-2 2h-5c-1.1 0-2-.9-2-2v-14c0-1.1.9-2 2-2h5c1.1 0 2 .9 2 2v3 6h-3z" fill="#656d78"/></g></g><g><g><path d="m8 49h-5c-1.654 0-3-1.346-3-3v-14c0-1.654 1.346-3 3-3h5c1.654 0 3 1.346 3 3v9c0 .553-.447 1-1 1s-1-.447-1-1v-9c0-.552-.448-1-1-1h-5c-.552 0-1 .448-1 1v14c0 .552.448 1 1 1h5c.552 0 1-.448 1-1v-1.004c0-.553.447-1 1-1s1 .447 1 1v1.004c0 1.654-1.346 3-3 3z"/></g><g><path d="m61 49h-5c-1.654 0-3-1.346-3-3v-1.004c0-.553.447-1 1-1s1 .447 1 1v1.004c0 .552.448 1 1 1h5c.552 0 1-.448 1-1v-14c0-.552-.448-1-1-1h-5c-.552 0-1 .448-1 1v8.996c0 .553-.447 1-1 1s-1-.447-1-1v-8.996c0-1.654 1.346-3 3-3h5c1.654 0 3 1.346 3 3v14c0 1.654-1.346 3-3 3z"/></g><g><path d="m57 45.996h-50c-.553 0-1-.447-1-1v-4c0-.553.447-1 1-1h50c.553 0 1 .447 1 1v4c0 .553-.447 1-1 1zm-49-2h48v-2h-48z"/></g><g><g><path d="m37.003 41.996c-.553 0-1-.447-1-1v-2.996c0-.553.447-1 1-1s1 .447 1 1v2.996c0 .553-.447 1-1 1z"/></g><g><path d="m26.997 41.996c-.553 0-1-.447-1-1v-2.996c0-.553.447-1 1-1s1 .447 1 1v2.996c0 .553-.447 1-1 1z"/></g></g><g><path d="m37 39h-10c-.281 0-.549-.118-.738-.326-.189-.207-.283-.484-.258-.765l1.001-11.002c.047-.515.479-.909.996-.909h7.998c.518 0 .949.395.996.909l1.001 11.002c.025.28-.068.558-.258.765-.189.208-.457.326-.738.326zm-8.905-2h7.811l-.819-9.002h-6.172z"/></g><g><path d="m27.273 36h-17.273c-.553 0-1-.447-1-1s.447-1 1-1h17.273c.553 0 1 .447 1 1s-.447 1-1 1z"/></g><g><path d="m54 36h-17.273c-.553 0-1-.447-1-1s.447-1 1-1h17.273c.553 0 1 .447 1 1s-.447 1-1 1z"/></g><g><path d="m17.002 41.996c-.553 0-1-.447-1-1v-13.994c0-.553.447-1 1-1s1 .447 1 1v13.994c0 .553-.447 1-1 1z"/></g><g><path d="m14.001 41.996c-.553 0-1-.447-1-1v-10.992c0-.553.447-1 1-1s1 .447 1 1v10.992c0 .553-.447 1-1 1z"/></g><g><path d="m17.002 31.004h-3.001c-.553 0-1-.447-1-1s.447-1 1-1h3.001c.553 0 1 .447 1 1s-.447 1-1 1z"/></g><g><path d="m28.001 28.002h-10.999c-.553 0-1-.447-1-1s.447-1 1-1h10.999c.553 0 1 .447 1 1s-.447 1-1 1z"/></g><g><path d="m47 41.996c-.553 0-1-.447-1-1v-13.994c0-.553.447-1 1-1s1 .447 1 1v13.994c0 .553-.447 1-1 1z"/></g><g><path d="m50.001 41.996c-.553 0-1-.447-1-1v-10.992c0-.553.447-1 1-1s1 .447 1 1v10.992c0 .553-.447 1-1 1z"/></g><g><path d="m50.001 31.004h-3.001c-.553 0-1-.447-1-1s.447-1 1-1h3.001c.553 0 1 .447 1 1s-.447 1-1 1z"/></g><g><path d="m47 28.002h-10.999c-.553 0-1-.447-1-1s.447-1 1-1h10.999c.553 0 1 .447 1 1s-.447 1-1 1z"/></g><g><path d="m28.001 27.998c-.553 0-1-.447-1-1v-8.998c0-.553.447-1 1-1s1 .447 1 1v8.998c0 .553-.447 1-1 1z"/></g><g><path d="m35.999 27.998c-.553 0-1-.447-1-1v-8.998c0-.553.447-1 1-1s1 .447 1 1v8.998c0 .553-.447 1-1 1z"/></g><g><path d="m33.999 21h-3.998c-1.654 0-3-1.346-3-3s1.346-3 3-3h3.998c1.654 0 3 1.346 3 3s-1.346 3-3 3zm-3.998-4c-.552 0-1 .448-1 1s.448 1 1 1h3.998c.552 0 1-.448 1-1s-.448-1-1-1z"/></g><g><path d="m24 36h-4c-.553 0-1-.447-1-1v-3c0-.553.447-1 1-1h4c.553 0 1 .447 1 1v3c0 .553-.447 1-1 1zm-3-2h2v-1h-2z"/></g><g><path d="m44.001 36h-4c-.553 0-1-.447-1-1v-3c0-.553.447-1 1-1h4c.553 0 1 .447 1 1v3c0 .553-.447 1-1 1zm-3-2h2v-1h-2z"/></g><g><path d="m22 28.002c-.553 0-1-.447-1-1v-3.002c0-.553.447-1 1-1s1 .447 1 1v3.002c0 .553-.447 1-1 1z"/></g><g><path d="m28.001 25h-6.001c-.553 0-1-.447-1-1s.447-1 1-1h6.001c.553 0 1 .447 1 1s-.447 1-1 1z"/></g><g><path d="m42 28.002c-.553 0-1-.447-1-1v-3.002c0-.553.447-1 1-1s1 .447 1 1v3.002c0 .553-.447 1-1 1z"/></g><g><path d="m42 25h-6.001c-.553 0-1-.447-1-1s.447-1 1-1h6.001c.553 0 1 .447 1 1s-.447 1-1 1z"/></g><g><path d="m28 25h-8c-.553 0-1-.447-1-1v-4c0-.553.447-1 1-1h8c.553 0 1 .447 1 1v4c0 .553-.447 1-1 1zm-7-2h6v-2h-6z"/></g><g><path d="m44 25h-8c-.553 0-1-.447-1-1v-4c0-.553.447-1 1-1h8c.553 0 1 .447 1 1v4c0 .553-.447 1-1 1zm-7-2h6v-2h-6z"/></g><g><path d="m36.001 28c-.553 0-1-.447-1-1 0-1.654-1.346-3-3-3s-3 1.346-3 3c0 .553-.447 1-1 1s-1-.447-1-1c0-2.757 2.243-5 5-5s5 2.243 5 5c0 .553-.447 1-1 1z"/></g></g></svg>